<svg data-v-423bf9ae="" xmlns="http://www.w3.org/2000/svg" viewBox="0 0 428 90" class="iconLeft"><!----><!----><!----><g data-v-423bf9ae="" id="6423c6f5-1004-4e02-af4c-5cd6cdc0a1f5" fill="white" transform="matrix(5.830903811703725,0,0,5.830903811703725,104.22739783081693,2.3469397142517323)"><path d="M0.99 12.29L0.99 2.69L6.20 2.69L6.20 2.69Q6.97 2.69 7.58 2.98L7.58 2.98L7.58 2.98Q8.19 3.28 8.53 3.81L8.53 3.81L8.53 3.81Q8.88 4.35 8.88 5.05L8.88 5.05L8.88 5.05Q8.88 5.85 8.44 6.44L8.44 6.44L8.44 6.44Q7.99 7.03 7.31 7.25L7.31 7.25L7.31 7.31L7.31 7.31Q8.12 7.48 8.63 8.11L8.63 8.11L8.63 8.11Q9.14 8.74 9.14 9.65L9.14 9.65L9.14 9.65Q9.14 10.95 8.32 11.62L8.32 11.62L8.32 11.62Q7.50 12.29 6.20 12.29L6.20 12.29L0.99 12.29ZM2.79 6.62L5.73 6.62L5.73 6.62Q6.34 6.62 6.69 6.29L6.69 6.29L6.69 6.29Q7.04 5.95 7.04 5.43L7.04 5.43L7.04 5.43Q7.04 4.83 6.72 4.52L6.72 4.52L6.72 4.52Q6.40 4.21 5.84 4.21L5.84 4.21L2.79 4.21L2.79 6.62ZM2.79 10.77L5.96 10.77L5.96 10.77Q6.58 10.77 6.94 10.44L6.94 10.44L6.94 10.44Q7.31 10.11 7.31 9.45L7.31 9.45L7.31 9.45Q7.31 8.82 6.94 8.47L6.94 8.47L6.94 8.47Q6.58 8.12 5.87 8.12L5.87 8.12L2.79 8.12L2.79 10.77ZM10.82 12.29L10.82 2.17L12.50 2.17L12.50 12.29L10.82 12.29ZM17.51 12.46L17.51 12.46Q15.72 12.46 14.85 11.52L14.85 11.52L14.85 11.52Q13.99 10.58 13.99 8.61L13.99 8.61L13.99 8.61Q13.99 6.64 14.86 5.70L14.86 5.70L14.86 5.70Q15.74 4.76 17.51 4.76L17.51 4.76L17.51 4.76Q19.14 4.76 19.94 5.67L19.94 5.67L19.94 5.67Q20.75 6.58 20.75 8.51L20.75 8.51L20.75 9.02L15.69 9.02L15.69 9.02Q15.74 10.11 16.16 10.62L16.16 10.62L16.16 10.62Q16.59 11.13 17.53 11.13L17.53 11.13L17.53 11.13Q18.23 11.13 18.66 10.77L18.66 10.77L18.66 10.77Q19.10 10.42 19.10 9.72L19.10 9.72L20.75 9.72L20.75 9.72Q20.75 11.07 19.85 11.77L19.85 11.77L19.85 11.77Q18.96 12.46 17.51 12.46L17.51 12.46ZM15.72 7.83L19.00 7.83L19.00 7.83Q19.00 6.09 17.51 6.09L17.51 6.09L17.51 6.09Q16.67 6.09 16.25 6.52L16.25 6.52L16.25 6.52Q15.82 6.94 15.72 7.83L15.72 7.83ZM22.23 12.29L22.23 4.93L23.62 4.93L23.76 5.91L23.86 5.91L23.86 5.91Q24.26 5.36 24.86 5.06L24.86 5.06L24.86 5.06Q25.45 4.76 26.22 4.76L26.22 4.76L26.22 4.76Q27.34 4.76 27.97 5.37L27.97 5.37L27.97 5.37Q28.60 5.98 28.60 7.32L28.60 7.32L28.60 12.29L26.92 12.29L26.92 7.62L26.92 7.62Q26.92 6.86 26.58 6.54L26.58 6.54L26.58 6.54Q26.24 6.22 25.56 6.22L25.56 6.22L25.56 6.22Q24.86 6.22 24.39 6.72L24.39 6.72L24.39 6.72Q23.91 7.22 23.91 8.01L23.91 8.01L23.91 12.29L22.23 12.29ZM32.98 12.46L32.98 12.46Q31.58 12.46 30.81 11.51L30.81 11.51L30.81 11.51Q30.04 10.56 30.04 8.60L30.04 8.60L30.04 8.60Q30.04 6.69 30.81 5.73L30.81 5.73L30.81 5.73Q31.58 4.76 32.87 4.76L32.87 4.76L32.87 4.76Q34.41 4.76 35.08 5.78L35.08 5.78L35.17 5.78L35.17 2.17L36.85 2.17L36.85 12.29L35.46 12.29L35.32 11.31L35.24 11.31L35.24 11.31Q34.87 11.87 34.29 12.17L34.29 12.17L34.29 12.17Q33.70 12.46 32.98 12.46L32.98 12.46ZM33.49 11.02L33.49 11.02Q34.36 11.02 34.76 10.44L34.76 10.44L34.76 10.44Q35.17 9.86 35.17 8.71L35.17 8.71L35.17 8.54L35.17 8.54Q35.17 6.20 33.49 6.20L33.49 6.20L33.49 6.20Q32.56 6.20 32.17 6.75L32.17 6.75L32.17 6.75Q31.78 7.31 31.78 8.53L31.78 8.53L31.78 8.71L31.78 8.71Q31.78 9.91 32.17 10.46L32.17 10.46L32.17 10.46Q32.56 11.02 33.49 11.02L33.49 11.02ZM38.40 9.30L38.40 7.73L41.92 7.73L41.92 9.30L38.40 9.30ZM47.53 12.46L47.53 12.46Q45.60 12.46 44.54 11.52L44.54 11.52L44.54 11.52Q43.48 10.58 43.48 8.74L43.48 8.74L43.48 2.69L45.28 2.69L45.28 8.69L45.28 8.69Q45.28 9.80 45.86 10.37L45.86 10.37L45.86 10.37Q46.45 10.95 47.53 10.95L47.53 10.95L47.53 10.95Q48.61 10.95 49.21 10.37L49.21 10.37L49.21 10.37Q49.81 9.80 49.81 8.69L49.81 8.69L49.81 2.69L51.60 2.69L51.60 8.74L51.60 8.74Q51.60 10.58 50.54 11.52L50.54 11.52L50.54 11.52Q49.48 12.46 47.53 12.46L47.53 12.46ZM53.66 12.29L53.66 2.69L55.44 2.69L55.44 12.29L53.66 12.29Z"></path></g><!----><g data-v-423bf9ae="" id="66a4610c-d074-48b8-8c72-85b2d482ba6e" transform="matrix(2.8125,0,0,2.8125,0,0)" stroke="none" fill="white"><path d="M9.382 8.675h13.943v13.943L32 31.293V0H.707zM22.618 23.325H8.675V9.382L0 .707V32h31.293z"></path></g><!----></svg>